<!--Font Awesome Pro License https://fontawesome.com/license-->
<svg width="100%" height="100%" viewBox="0 0 448 512" version="1.1" xmlns="http://www.w3.org/2000/svg" xmlns:xlink="http://www.w3.org/1999/xlink" xml:space="preserve" xmlns:serif="http://www.serif.com/" style="fill-rule:evenodd;clip-rule:evenodd;stroke-linejoin:round;stroke-miterlimit:2;">
    <path d="M128,32L32,32C14.445,32 -0,46.445 0,64L0,448C0,465.555 14.445,480 32,480L128,480C136.777,480 144,472.777 144,464L144,448C144,439.223 136.777,432 128,432L48,432L48,80L128,80C136.777,80 144,72.777 144,64L144,48C144,39.223 136.777,32 128,32ZM416,32L320,32C311.223,32 304,39.223 304,48L304,64C304,72.777 311.223,80 320,80L400,80L400,432L320,432C311.223,432 304,439.223 304,448L304,464C304,472.777 311.223,480 320,480L416,480C433.555,480 448,465.555 448,448L448,64C448,46.445 433.555,32 416,32Z" style="fill-rule:nonzero;"/>
    <g transform="matrix(0.791667,0,0,0.791667,80,280.471)">
        <path d="M48,48C21.668,48 -0,69.668 0,96C0,122.332 21.668,144 48,144C74.332,144 96,122.332 96,96C96,69.668 74.332,48 48,48Z" style="fill-rule:nonzero;"/>
    </g>
    <g transform="matrix(0.791667,0,0,0.791667,292,280.471)">
        <path d="M48,48C21.668,48 -0,69.668 0,96C0,122.332 21.668,144 48,144C74.332,144 96,122.332 96,96C96,69.668 74.332,48 48,48Z" style="fill-rule:nonzero;"/>
    </g>
    <g transform="matrix(0.791667,0,0,0.791667,186,280.471)">
        <path d="M48,48C21.668,48 -0,69.668 0,96C0,122.332 21.668,144 48,144C74.332,144 96,122.332 96,96C96,69.668 74.332,48 48,48Z" style="fill-rule:nonzero;"/>
    </g>
</svg>
